<svg width="492" height="90" viewBox="0 0 492 90" fill="none" xmlns="http://www.w3.org/2000/svg">
<path fill-rule="evenodd" clip-rule="evenodd" d="M147.557 78.8822C147.611 60.4359 159.704 45.5031 174.614 45.5031C159.671 45.5031 147.557 30.503 147.557 12C147.503 30.4463 135.41 45.3791 120.5 45.3791C135.443 45.3791 147.557 60.3791 147.557 78.8822Z" fill="#22D4FD"/>
<path fill-rule="evenodd" clip-rule="evenodd" d="M305.777 78.8822C305.831 60.4359 317.924 45.5031 332.833 45.5031C317.89 45.5031 305.777 30.503 305.777 12C305.723 30.4463 293.63 45.3791 278.72 45.3791C293.663 45.3791 305.777 60.3791 305.777 78.8822Z" fill="#22D4FD"/>
<path fill-rule="evenodd" clip-rule="evenodd" d="M226.667 78.8822C226.721 60.4359 238.814 45.5031 253.724 45.5031C238.781 45.5031 226.667 30.503 226.667 12C226.613 30.4463 214.52 45.3791 199.61 45.3791C214.553 45.3791 226.667 60.3791 226.667 78.8822Z" fill="#22D4FD"/>
<path d="M384.867 24.8809C381.817 34.342 375.529 41.9372 367.509 45.3789C375.563 48.8352 381.872 56.4808 384.907 65.999C387.958 56.5387 394.246 48.9432 402.265 45.502C394.21 42.0454 387.903 34.3998 384.867 24.8809Z" stroke="#22D4FD" stroke-width="4"/>
<path d="M463.988 24.8809C460.937 34.342 454.649 41.9372 446.629 45.3789C454.683 48.8352 460.992 56.4808 464.028 65.999C467.078 56.5387 473.366 48.9432 481.385 45.502C473.331 42.0454 467.023 34.3998 463.988 24.8809Z" stroke="#22D4FD" stroke-width="4"/>
<path d="M35.5 45C35.5 36.7135 43.3385 30.0021 53 30.0021C62.6692 30.0021 70.5 36.7071 70.5 45C70.5 53.2864 62.6692 59.9978 53 59.9978C43.3462 59.9978 35.5 53.2928 35.5 45Z" fill="#22D4FD"/>
<path d="M0.5 75.0021C0.5 66.7157 8.33846 59.9979 18 59.9979H35.5V75.0021C35.5 83.2821 27.6615 90 18 90C8.33846 90 0.5 83.2821 0.5 75.0021Z" fill="#22D4FD"/>
<path d="M35.5 0V30.0021H53C62.6692 30.0021 70.5 23.2843 70.5 14.9979C70.5 6.71786 62.6692 0 53 0H35.5Z" fill="#22D4FD"/>
<path d="M0.5 14.9979C0.5 23.2843 8.33846 30.0021 18 30.0021H35.5V0H18C8.33846 0 0.5 6.71786 0.5 14.9979Z" fill="#22D4FD"/>
<path d="M0.5 45C0.5 53.2864 8.33846 59.9978 18 59.9978H35.5V30.0021H18C8.33846 30.0021 0.5 36.7071 0.5 45Z" fill="#22D4FD"/>
</svg>
