<svg width="492" height="90" viewBox="0 0 492 90" fill="none" xmlns="http://www.w3.org/2000/svg">
<path d="M8.88137 80.8594L0.5 0H90.5L82.3182 80.8594L45.5998 90" fill="#22D4FD"/>
<path d="M45.5999 6.50391V82.9688L75.3338 75.7617L82.3183 6.50391" fill="#22D4FD"/>
<path d="M17.2627 16.5234H45.5997V26.3672H18.2605M19.2583 36.5625H45.5997V46.582H20.256M20.8547 51.5039H32.0299L32.8281 59.4141L45.5997 62.4023V72.7734L22.2516 67.1484" fill="#010101"/>
<path d="M45.5999 36.5625V46.582H59.3693L57.9724 59.4141L45.5999 62.4023V72.7734L68.5489 67.1484L73.7373 16.5234H45.5999V26.3672H61.5644L60.4668 36.5625H45.5999Z" fill="#010101"/>
<path fill-rule="evenodd" clip-rule="evenodd" d="M147.557 78.8822C147.611 60.4359 159.704 45.5031 174.614 45.5031C159.671 45.5031 147.557 30.503 147.557 12C147.503 30.4463 135.41 45.3791 120.5 45.3791C135.443 45.3791 147.557 60.3791 147.557 78.8822Z" fill="#22D4FD"/>
<path fill-rule="evenodd" clip-rule="evenodd" d="M305.777 78.8822C305.831 60.4359 317.924 45.5031 332.833 45.5031C317.89 45.5031 305.777 30.503 305.777 12C305.723 30.4463 293.63 45.3791 278.72 45.3791C293.663 45.3791 305.777 60.3791 305.777 78.8822Z" fill="#22D4FD"/>
<path fill-rule="evenodd" clip-rule="evenodd" d="M226.667 78.8822C226.721 60.4359 238.814 45.5031 253.724 45.5031C238.781 45.5031 226.667 30.503 226.667 12C226.613 30.4463 214.52 45.3791 199.61 45.3791C214.553 45.3791 226.667 60.3791 226.667 78.8822Z" fill="#22D4FD"/>
<path fill-rule="evenodd" clip-rule="evenodd" d="M384.887 78.8822C384.941 60.4359 397.034 45.5031 411.944 45.5031C397.001 45.5031 384.887 30.503 384.887 12C384.833 30.4463 372.74 45.3791 357.83 45.3791C372.773 45.3791 384.887 60.3791 384.887 78.8822Z" fill="#22D4FD"/>
<path fill-rule="evenodd" clip-rule="evenodd" d="M464.007 78.8822C464.061 60.4359 476.154 45.5031 491.064 45.5031C476.121 45.5031 464.007 30.503 464.007 12C463.953 30.4463 451.86 45.3791 436.95 45.3791C451.893 45.3791 464.007 60.3791 464.007 78.8822Z" fill="#22D4FD"/>
</svg>
