<svg width="492" height="90" viewBox="0 0 492 90" fill="none" xmlns="http://www.w3.org/2000/svg">
<path fill-rule="evenodd" clip-rule="evenodd" d="M147.557 78.8822C147.611 60.4359 159.704 45.5031 174.614 45.5031C159.671 45.5031 147.557 30.503 147.557 12C147.503 30.4463 135.41 45.3791 120.5 45.3791C135.443 45.3791 147.557 60.3791 147.557 78.8822Z" fill="#22D4FD"/>
<path fill-rule="evenodd" clip-rule="evenodd" d="M305.777 78.8822C305.831 60.4359 317.924 45.5031 332.833 45.5031C317.89 45.5031 305.777 30.503 305.777 12C305.723 30.4463 293.63 45.3791 278.72 45.3791C293.663 45.3791 305.777 60.3791 305.777 78.8822Z" fill="#22D4FD"/>
<path fill-rule="evenodd" clip-rule="evenodd" d="M226.667 78.8822C226.721 60.4359 238.814 45.5031 253.724 45.5031C238.781 45.5031 226.667 30.503 226.667 12C226.613 30.4463 214.52 45.3791 199.61 45.3791C214.553 45.3791 226.667 60.3791 226.667 78.8822Z" fill="#22D4FD"/>
<path fill-rule="evenodd" clip-rule="evenodd" d="M384.887 78.8822C384.941 60.4359 397.034 45.5031 411.944 45.5031C397.001 45.5031 384.887 30.503 384.887 12C384.833 30.4463 372.74 45.3791 357.83 45.3791C372.773 45.3791 384.887 60.3791 384.887 78.8822Z" fill="#22D4FD"/>
<path d="M463.988 24.8809C460.937 34.342 454.649 41.9372 446.629 45.3789C454.683 48.8352 460.992 56.4808 464.028 65.999C467.078 56.5387 473.366 48.9432 481.385 45.502C473.331 42.0454 467.023 34.3998 463.988 24.8809Z" stroke="#22D4FD" stroke-width="4"/>
<path d="M8 80.3571L0.5 0H90.5L83 80.3571L45.5 90L8 80.3571Z" fill="#22D4FD"/>
<path d="M83 6.42857H45.5V85.1786L75.5 77.1429L83 6.42857Z" fill="#22D4FD"/>
<path d="M21.125 46.6071L17.375 16.0714H75.5L73.625 25.7143H28.625L30.5 36.9643H71.75L68 67.5L45.5 73.9286L23 67.5L21.125 51.4286H32.375L34.25 59.4643L45.5 62.6786L56.75 59.4643L58.625 46.6071H21.125Z" fill="#010101"/>
</svg>
